<svg width="240" height="242" viewBox="0 0 240 242" fill="none" xmlns="http://www.w3.org/2000/svg">
<path fill-rule="evenodd" clip-rule="evenodd" d="M239.994 71.242C240.1 74.6071 238.703 77.6004 235.524 79.3688L204.157 96.8082L232.648 112.83C235.863 114.638 237.574 118.052 237.306 121.461C237.554 124.975 236.208 128.135 232.958 129.965L125.078 190.314C122.829 191.58 120.311 192.134 118 191.499C116.966 191.215 116.03 190.868 115.047 190.314L7.35187 129.755C4.13704 127.947 2.42741 124.528 2.69564 121.118C2.44694 117.605 3.79199 114.45 7.04198 112.62L35.8466 96.4233L4.79199 79.1555C3.86751 78.6406 3.06803 78.0009 2.39746 77.2675C2.1071 76.9893 1.84017 76.6902 1.60189 76.3703C1.35449 76.0401 1.13705 75.6916 0.954756 75.3223C0.866215 75.0909 0.784184 74.8594 0.707361 74.628L0.541997 74.2067L0.426112 73.8686C0.371425 73.6996 0.323248 73.5279 0.278977 73.3537L0.20606 73.0416C0.0498109 72.3239 -0.0178972 71.5853 0.00554019 70.8441C-0.0999283 67.479 1.2972 64.4858 4.47558 62.7174L114.621 1.47673C115.546 0.961814 117.009 0.441033 118 0.251192C119.474 -0.0322693 120.594 -0.131535 122 0.251193C123.071 0.542756 124.06 1.13085 125.066 1.68997L235.208 62.9306C235.373 63.0216 235.534 63.1179 235.69 63.2193C235.838 63.3129 235.983 63.4091 236.123 63.5079C236.254 63.6016 236.381 63.6978 236.505 63.7966C236.903 64.1113 237.271 64.4545 237.605 64.8212C237.864 65.0709 238.103 65.3335 238.32 65.6118C238.6 65.9707 238.843 66.3556 239.045 66.7639C239.134 66.9953 239.215 67.2242 239.291 67.4556C239.793 68.6493 240.036 69.9417 239.994 71.242ZM29.0758 121.123L120 173.304L210.924 121.461L185.776 107.028L125 140.499C122.699 141.779 121 142.499 118.5 141.999C117.417 141.822 116.007 141.058 115 140.499L54.3517 106.711L29.0758 121.123Z" fill="white"/>
<path d="M7.86229 170.149C10.3388 165.983 15.8154 164.576 20.0953 166.956L120 223.645L220.199 167.159C224.479 164.776 230.509 166.459 232.432 170.352C234.251 175.114 233.399 179.867 229.106 182.255L125 239.999C122.828 241.208 120.733 242.105 118.5 241.499C118.384 241.468 117.621 241.241 117 240.999C116.685 240.876 115.694 240.384 115 239.999L11.1917 182.055C6.89484 179.665 5.38053 174.336 7.86229 170.149Z" fill="white"/>
</svg>
