<svg width="563" height="160" viewBox="0 0 563 160" fill="none" xmlns="http://www.w3.org/2000/svg">
<path fill-rule="evenodd" clip-rule="evenodd" d="M158.955 47.1619C159.025 49.3896 158.1 51.3711 155.995 52.5418L135.219 64.0866L154.09 74.6931C156.219 75.8896 157.352 78.15 157.174 80.407C157.339 82.7328 156.447 84.8245 154.295 86.0365L82.8429 125.987C81.3535 126.825 79.6856 127.192 78.1549 126.772C77.47 126.584 76.8501 126.354 76.1989 125.987L4.86936 85.8971C2.74008 84.7006 1.60774 82.4367 1.7854 80.1797C1.62068 77.8539 2.51155 75.7657 4.66411 74.5537L23.7422 63.8318L3.17387 52.4006C2.56156 52.0598 2.03205 51.6363 1.58791 51.1508C1.39559 50.9666 1.2188 50.7686 1.06098 50.5568C0.897122 50.3382 0.7531 50.1075 0.632363 49.8631C0.57372 49.7098 0.519388 49.5566 0.468506 49.4034L0.358981 49.1245L0.282226 48.9007C0.246005 48.7888 0.214096 48.6752 0.184775 48.5598L0.13648 48.3532C0.0329912 47.8781 -0.0118539 47.3892 0.00366943 46.8985C-0.0661854 44.6708 0.859176 42.6893 2.96431 41.5186L75.9169 0.977586C76.5292 0.636717 77.4986 0.291962 78.1549 0.166288C79.1311 -0.0213622 79.8729 -0.0870755 80.8042 0.166289C81.5137 0.359302 82.1685 0.748618 82.8352 1.11875L155.785 41.6598C155.895 41.7201 156.001 41.7838 156.104 41.8509C156.203 41.9129 156.298 41.9766 156.391 42.042C156.478 42.104 156.562 42.1677 156.644 42.2331C156.908 42.4414 157.151 42.6686 157.373 42.9114C157.544 43.0767 157.702 43.2505 157.846 43.4347C158.032 43.6723 158.193 43.9271 158.327 44.1974C158.385 44.3506 158.439 44.5021 158.49 44.6553C158.822 45.4455 158.983 46.3011 158.955 47.1619ZM19.2577 80.1832L79.4795 114.726L139.701 80.407L123.045 70.8523L82.7912 93.0099C81.2673 93.8569 80.1419 94.3338 78.486 94.0028C77.7685 93.8858 76.8345 93.38 76.1679 93.0099L35.9988 70.6423L19.2577 80.1832Z" fill="white"/>
<path d="M5.20743 112.638C6.84772 109.88 10.475 108.949 13.3097 110.524L79.4795 148.052L145.844 110.658C148.679 109.081 152.673 110.195 153.947 112.772C155.151 115.925 154.587 119.072 151.744 120.652L82.7912 158.878C81.3527 159.679 79.9651 160.272 78.486 159.871C78.4094 159.851 77.9039 159.7 77.4925 159.54C77.2838 159.459 76.6275 159.133 76.1679 158.878L7.4126 120.519C4.56666 118.937 3.56368 115.41 5.20743 112.638Z" fill="white"/>
<path d="M403.581 129.3C382.446 129.3 368.268 113.295 368.268 93.6172C368.268 73.939 383.102 57.6717 403.581 57.6717C424.06 57.6717 438.238 73.939 438.238 93.6172C438.238 95.585 438.107 97.684 437.713 99.9142H386.646C388.616 107.917 394.654 113.558 403.581 113.558C411.195 113.558 417.102 109.622 420.253 104.375L434.037 114.738C428.523 123.266 417.102 129.3 403.581 129.3ZM386.646 86.6642H420.384C418.415 79.0553 411.983 72.8895 403.318 72.8895C394.917 72.8895 388.616 78.5306 386.646 86.6642Z" fill="white"/>
<path d="M482.35 129.3C461.118 129.3 444.161 113.296 444.161 93.4873C444.161 73.6787 460.691 57.8055 483.348 57.6743C496.885 57.5432 507.857 62.3969 514.127 70.3991L499.307 81.5496C495.887 76.8271 490.187 73.8098 483.633 73.8098C471.378 73.8098 463.398 82.8615 463.398 93.4873C463.398 104.113 471.805 113.165 484.06 113.165C491.47 113.165 496.315 109.754 500.162 105.031L514.127 116.182C507.145 124.446 496.885 129.3 482.35 129.3Z" fill="white"/>
<path d="M551.386 129.44C537.475 129.44 529.912 122.962 529.912 107.711V74.781H520.054V59.2606H529.912V43.2003H548.144V59.2606H563V74.781H548.144V106.767C548.144 111.22 550.305 113.245 553.816 113.245H561.379V129.44H551.386Z" fill="white"/>
<path d="M285.368 54.1781C285.368 40.0072 294.552 30.56 308.732 30.56H316.295V46.0804H311.568C306.166 46.0804 303.6 48.9146 303.6 54.448V58.9017H317.916V74.4221H303.6V129.081H285.368V74.4221H275.51V58.9017H285.368V54.1781Z" fill="white"/>
<path d="M331.747 54.1781C331.747 40.0072 340.931 30.56 355.111 30.56H362.674V46.0804H357.947C352.545 46.0804 349.979 48.9146 349.979 54.448V58.9017H364.295V74.4221H349.979V129.081H331.747V74.4221H321.889V58.9017H331.747V54.1781Z" fill="white"/>
<path d="M212.266 129.246V34.7734H267.637V51.7785H231.173V72.9672H266.961V89.4324H231.173V112.241H267.907V129.246H212.266Z" fill="white"/>
</svg>
